<?xml version="1.0" encoding="utf-8"?>
<!-- Generator: Adobe Illustrator 23.0.1, SVG Export Plug-In . SVG Version: 6.00 Build 0)  -->
<svg version="1.1" id="Layer_1" xmlns="http://www.w3.org/2000/svg" xmlns:xlink="http://www.w3.org/1999/xlink" x="0px" y="0px"
	 viewBox="0 0 40 40" style="enable-background:new 0 0 40 40;" xml:space="preserve">
<style type="text/css">
	.st0{fill:#FFFFFF;}
</style>
<path class="st0" d="M21.9,10.7H4.1c-0.7,0-1.2-0.5-1.2-1.2V8.1c0-0.7,0.5-1.2,1.2-1.2h17.8c0.7,0,1.2,0.5,1.2,1.2v1.4
	C23.1,10.2,22.6,10.7,21.9,10.7z"/>
<path class="st0" d="M36.9,34.8H4.1c-0.7,0-1.2-0.5-1.2-1.2v-1.4c0-0.6,0.5-1.2,1.2-1.2h32.8c0.7,0,1.2,0.5,1.2,1.2v1.4
	C38.1,34.2,37.6,34.8,36.9,34.8z"/>
<path class="st0" d="M29.4,21.4H4.1c-0.7,0-1.2-0.5-1.2-1.2v-1.1c0-0.6,0.5-1.2,1.2-1.2h25.4c0.6,0,1.2,0.5,1.2,1.2v1.1
	C30.6,20.9,30.1,21.4,29.4,21.4z"/>
</svg>
